HIERARCHY
ROOT Hips
{
    OFFSET 0.000000 0.000000 0.000000
    CHANNELS 6 Xposition Yposition Zposition Zrotation Xrotation Yrotation
    JOINT Spine
    {
        OFFSET -0.000000 14.517291 0.000000
        CHANNELS 3 Zrotation Xrotation Yrotation
        JOINT Spine1
        {
            OFFSET -0.000000 37.558300 0.000000
            CHANNELS 3 Zrotation Xrotation Yrotation
            JOINT Neck
            {
                OFFSET -0.000000 37.404057 3.400369
                CHANNELS 3 Zrotation Xrotation Yrotation
                JOINT Head
                {
                    OFFSET -0.000000 24.785618 -3.540803
                    CHANNELS 3 Zrotation Xrotation Yrotation
                    End Site
                    {
                        OFFSET -0.000000 35.408028 0.000000
                    }
                }
            }
            JOINT LeftShoulder
            {
                OFFSET 6.992933 33.973492 -0.192664
                CHANNELS 3 Zrotation Xrotation Yrotation
                JOINT LeftArm
                {
                    OFFSET 21.527611 0.000000 0.000000
                    CHANNELS 3 Zrotation Xrotation Yrotation
                    JOINT LeftForeArm
                    {
                        OFFSET 56.353916 0.000000 0.000000
                        CHANNELS 3 Zrotation Xrotation Yrotation
                        JOINT LeftHand
                        {
                            OFFSET 47.774071 0.000000 0.000000
                            CHANNELS 3 Zrotation Xrotation Yrotation
                            End Site
                            {
                                OFFSET 26.556021 0.000000 0.000000
                            }
                        }
                    }
                }
            }
            JOINT RightShoulder
            {
                OFFSET -7.065357 33.973492 -0.192664
                CHANNELS 3 Zrotation Xrotation Yrotation
                JOINT RightArm
                {
                    OFFSET -21.527611 0.000000 0.000000
                    CHANNELS 3 Zrotation Xrotation Yrotation
                    JOINT RightForeArm
                    {
                        OFFSET -56.353916 0.000000 0.000000
                        CHANNELS 3 Zrotation Xrotation Yrotation
                        JOINT RightHand
                        {
                            OFFSET -47.774071 0.000000 0.000000
                            CHANNELS 3 Zrotation Xrotation Yrotation
                            End Site
                            {
                                OFFSET -26.556021 0.000000 0.000000
                            }
                        }
                    }
                }
            }
        }
    }
    JOINT LeftUpLeg
    {
        OFFSET 17.704014 0.000000 0.000000
        CHANNELS 3 Zrotation Xrotation Yrotation
        JOINT LeftLeg
        {
            OFFSET -0.000000 -81.181816 0.000000
            CHANNELS 3 Zrotation Xrotation Yrotation
            JOINT LeftFoot
            {
                OFFSET -0.000000 -62.821102 0.000000
                CHANNELS 3 Zrotation Xrotation Yrotation
                JOINT LeftToeBase
                {
                    OFFSET -0.000000 -11.507608 26.556021
                    CHANNELS 3 Zrotation Xrotation Yrotation
                    End Site
                    {
                        OFFSET -0.000000 0.000000 7.081605
                    }
                }
            }
        }
    }
    JOINT RightUpLeg
    {
        OFFSET -17.704014 0.000000 0.000000
        CHANNELS 3 Zrotation Xrotation Yrotation
        JOINT RightLeg
        {
            OFFSET -0.000000 -81.181816 0.000000
            CHANNELS 3 Zrotation Xrotation Yrotation
            JOINT RightFoot
            {
                OFFSET -0.000000 -62.821102 0.000000
                CHANNELS 3 Zrotation Xrotation Yrotation
                JOINT RightToeBase
                {
                    OFFSET -0.000000 -11.507608 26.556021
                    CHANNELS 3 Zrotation Xrotation Yrotation
                    End Site
                    {
                        OFFSET -0.000000 0.000000 7.081605
                    }
                }
            }
        }
    }
}
MOTION
Frames:    4
Frame Time:    0.008333
24.075941    155.835938    -35.422016    1.266629    -1.289144    -43.845970    2.776205    -1.519667    5.552188    1.919920    1.210810    1.818499    10.430149    2.143973    12.938665    -7.677140    5.718463    11.415994    7.157932    1.459045    -7.692143    -24.726170    6.320329    12.153811    -10.061785    -23.629406    -115.148331    -3.350151    -37.032043    -13.424414    -8.410279    5.524827    -0.518729    35.229820    9.079841    77.467468    4.936463    -3.455988    102.137405    9.850712    -7.499208    23.542507    17.280825    -19.479046    4.290467    -12.036876    19.652872    -3.986187    -8.486040    -0.435541    37.855186    0.000000    0.000000    0.000000    -15.780978    1.827769    -6.155467    7.116672    28.650286    -2.208485    4.550267    -22.807070    -18.092911    0.000000    0.000000    0.000000    
24.075045    155.827957    -35.427685    1.269873    -1.300784    -43.784199    2.778782    -1.523764    5.541398    1.896116    1.218297    1.814974    10.436396    2.125377    12.935349    -7.667921    5.729284    11.411516    7.121161    1.467886    -7.673475    -24.810621    6.345541    12.121361    -10.008876    -23.785389    -115.116783    -3.419757    -37.086185    -13.401144    -8.428879    5.518548    -0.535505    35.248451    9.084773    77.501122    4.898425    -3.464537    102.126320    9.773221    -7.471765    23.586470    17.261471    -19.486382    4.286574    -12.041221    19.634699    -4.001082    -8.473210    -0.404833    37.820213    0.000000    0.000000    0.000000    -15.776280    1.849468    -6.194337    7.100616    28.666868    -2.199178    4.541600    -22.841770    -18.124836    0.000000    0.000000    0.000000    
24.077459    155.819366    -35.431133    1.277878    -1.307675    -43.726322    2.783610    -1.543528    5.527682    1.868903    1.237400    1.810197    10.416457    2.121954    12.927472    -7.624365    5.710599    11.408296    7.094738    1.474672    -7.655521    -24.891628    6.349300    12.079345    -9.968595    -23.908503    -115.075508    -3.395459    -37.134010    -13.392267    -8.437449    5.498982    -0.539821    35.254726    9.083298    77.497765    4.911210    -3.444495    102.161575    9.811522    -7.470951    23.500027    17.242929    -19.498182    4.272114    -12.051127    19.615025    -4.000881    -8.466787    -0.383230    37.782291    0.000000    0.000000    0.000000    -15.779217    1.863485    -6.254982    7.087012    28.680773    -2.214185    4.550750    -22.858246    -18.109707    0.000000    0.000000    0.000000    
24.082235    155.814819    -35.435230    1.281496    -1.315310    -43.671989    2.791108    -1.547201    5.507411    1.834427    1.238797    1.803714    10.415609    2.099869    12.923869    -7.590599    5.722507    11.406453    7.077492    1.480010    -7.652017    -24.938818    6.308224    12.053788    -9.945181    -23.945232    -115.010368    -3.349695    -37.124069    -13.411755    -8.436912    5.486806    -0.546317    35.257629    9.084253    77.504013    4.904195    -3.438177    102.169785    9.802039    -7.459612    23.492678    17.224077    -19.511431    4.269406    -12.042593    19.613117    -4.055792    -8.472393    -0.375865    37.771034    0.000000    0.000000    0.000000    -15.782672    1.882012    -6.305845    7.081791    28.688644    -2.211363    4.533484    -22.866726    -18.121778    0.000000    0.000000    0.000000    
